<svg width="100" height="100" viewBox="0 0 100 100" fill="none" xmlns="http://www.w3.org/2000/svg">
<rect x="4" y="4" width="92" height="92" fill="#232218" stroke="#BEA55E" stroke-width="8"/>
<path d="M10 10H25L10 25V10Z" fill="#BEA55E"/>
<path d="M90 10V25L75 10L90 10Z" fill="#BEA55E"/>
<path d="M10 90L10 75L25 90H10Z" fill="#BEA55E"/>
<path d="M90 90H75L90 75V90Z" fill="#BEA55E"/>
<line x1="63" y1="29.8" x2="86" y2="29.8" stroke="#C7C5B3" stroke-width="4"/>
<line x1="74.8" y1="41" x2="74.8" y2="18" stroke="#C7C5B3" stroke-width="4"/>
<path d="M34 41.5L34.6528 37.4201C35.429 32.5688 39.6142 29 44.5272 29H50.5473C55.4275 29 59.5949 32.5226 60.4076 37.3347L61.1111 41.5L65 42.5V57.8027C65 59.4862 64.1528 61.0567 62.7459 61.9813L49.6967 70.5564C48.3633 71.4327 46.6367 71.4327 45.3033 70.5564L32.2541 61.9813C30.8472 61.0567 30 59.4862 30 57.8027V42.5L34 41.5Z" fill="#C7C5B3"/>
<path d="M32.5 67H18V74.5L23 79.5H70L75 74.5V67H61.5L56.5 73H37.5L32.5 67Z" fill="#C7C5B3"/>
<path d="M58 44H37V51H40.4338C40.7851 51 41.1106 50.8157 41.2913 50.5145L41.9174 49.471C42.2788 48.8686 42.9299 48.5 43.6324 48.5H51.3676C52.0701 48.5 52.7212 48.8686 53.0826 49.471L53.7087 50.5145C53.8894 50.8157 54.2149 51 54.5662 51H58V44Z" fill="#232218"/>
</svg>
